/* XPM */
static char *f8fc23ab9bb345abd02650b1498b07a7kz9VnL6clZJiRlKy[] = {
/* columns rows colors chars-per-pixel */
"64 64 48 1 ",
"  c #2FBBFA",
". c #35BDF6",
"X c #34BDFC",
"o c #38BFFD",
"O c #36C1FD",
"+ c #3CC4FD",
"@ c #3EC9FE",
"# c #41C7FE",
"$ c #43CBFD",
"% c #4ACEFE",
"& c #51CFFC",
"* c #47D0FE",
"= c #4DD1FE",
"- c #5AD3F7",
"; c #54D4FE",
": c #5AD6FD",
"> c #55D8FE",
", c #5DD9FC",
"< c #65DAFD",
"1 c #64DBFD",
"2 c #66DAFC",
"3 c #66DDFD",
"4 c #6ADBFB",
"5 c #68DBFC",
"6 c #6ADBFC",
"7 c #6ADFFE",
"8 c #6FDCFE",
"9 c #71DEFA",
"0 c #75DEFB",
"q c #72DFFC",
"w c #76DFFD",
"e c #6CE0FE",
"r c #6EE1FE",
"t c #72E0FD",
"y c #73E0FD",
"u c #77E0FC",
"i c #76E2FD",
"p c #7AE3F9",
"a c #7DE3FA",
"s c #7BE4FA",
"d c #7FE5FB",
"f c #7BE3FD",
"g c #7CE3FC",
"h c #7CE4FD",
"j c #7DE5FD",
"k c #7FE8FD",
"l c #81E7FD",
"z c #83EAFE",
/* pixels */
"zddkdddjpfjifiwiqiq9iiiiie222,2,,,,::>>;;;;;====%%%%%%$$#$$####+",
"llldjsjdpfifiiwwwqqqqwiiiy8222,,,,,::>>>;;;;===%%%%%%$$$$$$##+++",
"zlldpjsdpff0fwqwqqqqqq9iiyq723,,,:,::>>>;;;;=%%%%%%%%$$$#$$###++",
"dlljpfjffiiiiqwwqqq8888qyiyy73,,,::>;;>>>;;==%%%%%%%$$$$##$#++++",
"lddjjjjffijiiiiqqy8888868qyy862,,::>;;;;;====%%%%%%$$$$###++++++",
"ladgjjjffiiqiii9qy88887748ee8872,,:>;;;;;====%%%%%%$$$$###+++++O",
"dldfjjffiiiiqii9q8887777667888732,:>;;;;;===%%%%%%%$$$$####+++O+",
"lajgfjffwiiiiiqq9888e773722377772,::;;;>;==%%%%%%%$$$$$###+++++%",
"dljjjfffiiiyiqqy887ee7733322777331:;;;;;;==%=%%%%$$$$$$##+++++%*",
"jdjjjffiiiyyqyyq887ee77222222333331-;>;;===*=%%%%$$##$$##++++%*$",
"jdpjfjffiiyyyyyq88877732222223373331>;>=%$$%%%%%%$$$$$#+++++$*%$",
"pdjfjifiiiyiqqyq88877332222223373331,>;$$$+#$%%%$$$$$$#++++%*%$$",
"ddpjfiffiiyqqqqq888773322222237733312,%$$$@++$%%$$$$$$#+++%*%$$$",
"djpjiwwiiiyqqqqq888733222222337733332:=$@@++O+#%$$$$$$#++%**%%$$",
"jjjjfiiiiyyyqq8887772332222333723322:;;*$@+++++@$$$#$#+#%**%%$$$",
"jjffiiiiyyqqqq888777732222377362332:>;;=%$+++++O+$$#$+#%=%*%$$$@",
"jfffiiiiii9qq888873772222277732232:;;;;=%%#++++O.+$++$$**%*%$$@@",
"ffffiiiiii9qq88877373222377773332:>>;;;=*%$+O+OOX.+$$%=**%$$$$$@",
"ffffiiiiiiqqq8q87773322377737732,:>>;;;==%%$OOO.XX.+%==**$%$$$$@",
"ffffiiiiiiqqq888777332377777322,::>>;;;===%%$OO.XXo+%=*=*%%$$$@@",
"fiiiiyyyyyy8777333666677767732,:>>>>>===%%%%%$+..O+++%*=*%$@@@@@",
"iffiiyyyyy8322223364777777333,::>>>>>===*%%%%%$++@@+++%**%%$$@@@",
"iffiiyyye72222,,2337787773732,:>>>>>>===*%%%%%$$$$+++O+%%%%%$@@+",
"fffiiyyee322,,,,,,3788887732,::>>>>>>===*%%%%$$$$$++++OO$%%%$@@+",
"fffiyqye633,,,,,,,278876733,,,:>>>>>====*%%%%$$$$$+++++++$%%$$@@",
"ffiiiq87231,,,,,,,,27e3332,,,:::>>>;;===**%%%$$$$$@++++OO+$%$$$+",
"iiiyye722312,,,,,2,,23332,,,,:::>>>;;;=****%%$$$$@@++++OOOO+$$$@",
"iiiye7721112,,,,2,,,,2222,,,,::>>>>;;;=****%$$$@$@@++++OOOoX@$@@",
"fiie72222,,,,322,,,,,,,,,,,,,::>>>>;;==***%%$$$$$$@+++OOOoO.O@@@",
"iiy773331,,,3222,,,,,:;:,,,,,::>>>>;;=****%%$$$$$$@+++OOOXXX O@@",
"iq873332,,,,112,,,,,:>>;>,,,,::>>>>;;=****%%$$$$$$@+++OOOXOX .@@",
"i83333322211112,,,,::>>>;>,,,,>>>>>>==*=%%%%$$$$@@+++OOOOOOX.X+@",
"y733333222311,,,,,::>>;;;;;,,,>>>>>>==*=%%%%$$$$@@+++O+OOO.X.O++",
"y773222223331,,,,,::>>;;;;&;>>>>>>>;=**=*%%%$$$$@++++OOOOXX.O+$+",
"ee333222332221,,,,::>>>;;;%%;>>>>>;=======*%%$@$++++++OOXX.O@@@+",
"ee63333333222,,,,,::>>>;;=%%%=>>>>========**%$@@++++++OOXXO@@@++",
"e873333333222,,,,,::;;>;==%=%%=>>;;;=*=>=****%$@+++++OOOOO@@@@+O",
"888333333322,,,,,:::;;;;==%==%%=;>;;==>>==***%$$+++++OOOO@@@@+OO",
"888733321122,,,,::::;;;;==%==%%%%=>;==>>==**%%%$$+++++O+@@@@+++O",
"77777332112,,,,,::::;;;;==%=%%%%$%;>>=====*%%%%$$@+++++$$@@+++OO",
"777733311,,,,,,,::::;;;;==**%%%%$$*>>>====*%%%%$$$++O+$$$$++++OO",
"777332211,,,,,,::::;;;;;===*%%%$$$$%;>>===*%%%%$$$@++$$$$+++++OO",
"e33322111,,,,,::>;>>>=;===*%%%%$$%$$%>;==%%%%%%$$$$$$$$$++++++OO",
"e73222111,,,,,::>>>>>=;===*%%%%%%%$$$%===%%%%%%$$$#$+@$$@+++++OO",
"773211112,,,,:::;>>>>=====%%%%%%%$$$$$$***%%%%$$$$##++@$++++OOOO",
"373211112,,,::::;;;;>====%%%%%%%%$$$$$#$*%%%%%$$$$#++++@++++OOOO",
"373231222,,,::::>>>;>=====%%%%%%%$$$$$#+$%%%%$$$$$#+++++++++OOoO",
"33323322,,:,:::>>>;;>=====%%%%%%%$$$$#+++$%*$$$$$$$+++++++++OOO.",
"3322,,,,,,:,::>>>;;;=========%%%%$$$$##++O#%%%$$$$$++++OOO++OOOO",
"33222,,,,,:,::>>>;;==%=%=====%%%$$$$$#++++o+%%$$$$$++++OOOOOOOO ",
"333211,,,,::::>>;;====%%=====%%%$$$$$++++ooo+%$$$@#+++++OOX.XO..",
"312,11,,,,::::>>;;;==%%=>===%%%%$$$#$+++++ooo+$$$@#++++OOOoX.oXO",
"3222,,,,:,:::;;;>;==%%=;;===%%%%$$$$$++++++oXX+$$$++++OOOOooX.OX",
"322,,,,::::>>>;;>;====;;;%%%%%%%$$$$+++++++ooXXO@@@+++OOOXOXX .O",
"332,,,,::::>>>;;;====;;;&%%%%%%%$$$$#+++++ooooX.O@++++OOOoOXX XO",
"112,,,,::::>>>;;===;;;;;;%%%%%%%$$$$#++++++ooXXX.O++++OOOXOX  .O",
",,,,,,,::::>;;>====>;;;;=%%%%%%$$$$$#++++++ooXXXX.++++OXoo.X .OO",
",,,,,::::::>>>;===>>;;;;=%%%%%%$$$$$#++++++ooXXXXX+++OOO.oXX.OO.",
",,,,,::>;>;;;;;;;;;>;;;==%%%%%$$$$$#++++oooooXXXXXO++++OOoo..OXO",
",,,,,:,>>>;;;;;;;;;;;;;==%%%%%$$#$##++++oooooXXXX.+++OOOXoXoOoOo",
",,,,,:>>>;;;;;;&%%;;;;;==&%%%%$$####++++oooooXXX.+++O+OoOXOOOOoo",
"2,,,,:>>>;;;;;=%%%=;;>;==&%%%%$$####++++oooXXXX.+++O+OOoOoOOOo..",
"33,::>>>>;;;;;=%%%%%====%&%%%%$$###++++++oooXXX+@++O+OOoXX.oOXo ",
"732,::>>>;;;;;=%==%%**==%&%%%%$$###++++++ooooX+@@+++OOOoOX..ooXX"
};
