/* XPM */
static char *_f0d7e6d593b4eaaa4a283d37c37676au9x8R03AaVe3wlAh[] = {
/* columns rows colors chars-per-pixel */
"40 40 47 1 ",
"  c #35BEF7",
". c #33BDFB",
"X c #39BFFD",
"o c #36C0F7",
"O c #36C1FC",
"+ c #3CC4FC",
"@ c #3EC9FD",
"# c #41C7FD",
"$ c #43CBFC",
"% c #4ACEFD",
"& c #51CFFD",
"* c #4DD1FD",
"= c #53D3FD",
"- c #5AD6FC",
"; c #59D8FA",
": c #5DD9FC",
"> c #5FDAFE",
", c #62D9FB",
"< c #63D9FB",
"1 c #63D8FD",
"2 c #62DAFC",
"3 c #63DAFD",
"4 c #64DBFC",
"5 c #67DAFC",
"6 c #65DCFC",
"7 c #67DCFD",
"8 c #6FDDFB",
"9 c #68DBFD",
"0 c #6ADFFD",
"q c #6DDEFD",
"w c #6DDCFE",
"e c #73DFFB",
"r c #73DFFC",
"t c #76DFFC",
"y c #6EE1FD",
"u c #72E0FC",
"i c #73E0FC",
"p c #77E0FD",
"a c #7BE3FB",
"s c #7CE3FA",
"d c #7BE4FA",
"f c #7EE5FB",
"g c #79E2FC",
"h c #7CE3FC",
"j c #7BE4FD",
"k c #7DE4FC",
"l c #80E6FC",
/* pixels */
"lffddggpttrerppi0,>>-;--===**%%%%$$###@+",
"fffddapttrrrqqeir43>---====*%%%%%$####++",
"ffhagppptrrqqqqrrq4:--====**%%%%$$###@++",
"fshjgpppperqqq99qq03>-===**%%%%$$$##@@++",
"fsaggppree8q00944907,-====*%%%%$$$##@++#",
"fkgggpirrrq0009434077:===**%%%$$#$#@++$$",
"dagggpirrrq000443,4773-=*%$%%$$$##@@O#$$",
"aaggppirrrq094443,7774>=%$@#$$$$$#@@$$%$",
"dagptiirqq009443347773>=%@+++$$$##+$$$$$",
"gggppirrqqq0444,474473-=*$+++++$@+$%$$$$",
"ggpppprrqq00444477443-==*%$+O o++$*%$$$@",
"ggpppprrqq0744407773-===**%+o . $**$$$$@",
"gpppiirq00774400074>===**%%$+o +$%*%$$@@",
"pgpiiy04,,47900077>-===**%%$$++@++$%$$@@",
"gppii033>>>4000073--===**%%$$$@@+++$$$@@",
"gppiq43>>-:,00043:-====**%%$$$@@+OO+$$$@",
"ppiq733>::::,77,:>--===***$$$$@@+OO.+@$@",
"piq043>::>::::>>:>-====***$$$@@@+OO..o@@",
"pq0433::3>::--->:--====***$$$$@@+OO...o@",
"i0773,33>>>--===-:-===***%$$$$@@+OO...o@",
"q774333,::>-==========***%$$$$@@+OOO..+@",
"y0433733::>-====%=====****%$$@@@OO...O@@",
"q0777333::>-===*%%*===****%$$@@+OO. O@@O",
"0077733::>--===*%%%%==****%%$$@@OOo+@@+O",
"007743>>>>--===*%%%$%*=****%$$$@OO+$@+OO",
"007733>>>--====*%%%$$%****%%$$$@O@$$+OOO",
"077333>:--====**%%%%$$%**%%$$$$#@$$+++OO",
"77333>>>--===***%%%$$$#$**%$$$$$@@@+OOOO",
"77333>>---===**%%%%$$$##$$%$$$$@@@@@+OO.",
"77333>----===*%%%%%%$$#@@#$$$$@@@OOOOOO.",
"73>:::---===**%%%%%%$$$@@O+$$$@#@+OOOOo.",
"73>>:;---===*%%**%%%$$#@@OX+$$$@@OOo. ..",
"33>>>---===**%***%%%$$#@+OXX+##@+OO.....",
"33>>---====***=&%%%$$$@@+XX.. +@++o.....",
"33>>--====***==%%%%$$$@@+OX... @++O.....",
">:>---===***===*%%%$$$#@+XX....++oo ....",
">;;-======*===**%%$$##@@OXX ...o++O...O.",
">::=======%===**%%$$##@@+X. ...O+O......",
",:-======%%%***%%%$$##@+OX....O++O......",
"73-======*%%***%%%$$##++OX.  ++OoO......"
};
