/* XPM */
static char *_7a6321c4bce41b4a3a0edec91547ad4722GFiXB3LAX0GM0[] = {
/* columns rows colors chars-per-pixel */
"64 64 173 2 ",
"   c #4C0304",
".  c #4C0A0B",
"X  c #550104",
"o  c #5C0104",
"O  c #4B1111",
"+  c #4B1819",
"@  c #551213",
"#  c #5F1213",
"$  c #571618",
"%  c #541A1A",
"&  c #5C1A1A",
"*  c #640204",
"=  c #6C0204",
"-  c #640208",
";  c #6B0309",
":  c #6C0C0D",
">  c #730204",
",  c #7B0204",
"<  c #740805",
"1  c #7D0802",
"2  c #740409",
"3  c #7A0509",
"4  c #730B0B",
"5  c #7B0A0B",
"6  c #6F0E10",
"7  c #7B0F11",
"8  c #621515",
"9  c #681317",
"0  c #6F1518",
"q  c #6F191C",
"w  c #761112",
"e  c #7B1414",
"r  c #7B1719",
"t  c #7B1C1D",
"y  c #461E20",
"u  c #511F20",
"i  c #6B1E21",
"p  c #771F20",
"a  c #781E20",
"s  c #462525",
"d  c #4A2424",
"f  c #4E2B2C",
"g  c #532626",
"h  c #5B2527",
"j  c #522728",
"k  c #5E2628",
"l  c #532A2B",
"z  c #5B2F2F",
"x  c #562F30",
"c  c #543131",
"v  c #5A3434",
"b  c #5E3C3C",
"n  c #672627",
"m  c #6E2B2C",
"M  c #7A2122",
"N  c #752B2E",
"B  c #7E2E2E",
"V  c #602F30",
"C  c #623334",
"Z  c #643C3C",
"A  c #6E3839",
"S  c #733C3C",
"D  c #5E4040",
"F  c #654343",
"G  c #6B4445",
"H  c #664D4D",
"J  c #6A4A4A",
"K  c #724545",
"L  c #784647",
"P  c #774B4B",
"I  c #6F5F5E",
"U  c #735253",
"Y  c #7D5757",
"T  c #725C5C",
"R  c #7B5A5B",
"E  c #6F6060",
"W  c #746363",
"Q  c #7C6465",
"!  c #7C6C6C",
"~  c #830304",
"^  c #8A0204",
"/  c #810803",
"(  c #82060D",
")  c #8C060C",
"_  c #800D0D",
"`  c #930205",
"'  c #920408",
"]  c #851717",
"[  c #871817",
"{  c #82161A",
"}  c #8A1719",
"|  c #841B1C",
" . c #8A1C1D",
".. c #921D1D",
"X. c #831D20",
"o. c #8C1F22",
"O. c #832323",
"+. c #8B2223",
"@. c #8E272A",
"#. c #872828",
"$. c #8B2B2C",
"%. c #922223",
"&. c #90282A",
"*. c #893232",
"=. c #863C3D",
"-. c #8F3D3C",
";. c #933D3D",
":. c #864E4F",
">. c #9C4948",
",. c #815556",
"<. c #835759",
"1. c #875A5A",
"2. c #8B5F5E",
"3. c #925E5F",
"4. c #895F60",
"5. c #836263",
"6. c #8C6769",
"7. c #816C6C",
"8. c #8C6A6B",
"9. c #9C6566",
"0. c #827272",
"q. c #877878",
"w. c #997576",
"e. c #937B7B",
"r. c #A96969",
"t. c #A57675",
"y. c #A67A7A",
"u. c #AC7B7B",
"i. c #B37D7D",
"p. c #B1807F",
"a. c #A17F81",
"s. c #9E8383",
"d. c #AC8284",
"f. c #AF8689",
"g. c #AC8B8B",
"h. c #B38383",
"j. c #B38C8D",
"k. c #B98D8D",
"l. c #AD9192",
"z. c #A99897",
"x. c #AE9A9A",
"c. c #B49696",
"v. c #B99394",
"b. c #B39997",
"n. c #B89798",
"m. c #B49B9B",
"M. c #BC9C9C",
"N. c #B89FA0",
"B. c #BBA3A3",
"V. c #BCAAA9",
"C. c #C29C9D",
"Z. c #C4A4A4",
"A. c #C9A4A5",
"S. c #C4A8A7",
"D. c #C6A7A9",
"F. c #CAA6A8",
"G. c #C4ABAB",
"H. c #CCACAC",
"J. c #CFAFB0",
"K. c #C5B4B3",
"L. c #CCB4B4",
"P. c #CDB5B5",
"I. c #CDB6B8",
"U. c #C7BEBE",
"Y. c #CCBBBB",
"T. c #D1B3B4",
"R. c #D3BCBC",
"E. c #D2BFC0",
"W. c #CDC1C1",
"Q. c #D3C3C3",
"!. c #DAC6C6",
"~. c #DBCDCC",
"^. c #D8D0D0",
/* pixels */
"R.B.s.s.b.b.m.K.K.Q.R.!.R.L.H.T.L.I.L.L.L.D.G.Q.Q.!.R.!.Q.L.L.L.R.B.s.s.b.b.m.K.K.Q.R.!.R.L.H.T.L.I.I.L.L.D.G.Q.Q.!.R.!.Q.L.L.L.",
"{ { { t | ] t Y D.-.O.M t t t { t {  .t | [ t 2.v.*.O.M M t t | { { { t | ] t Y D.-.O.M t t t { t {  .t | [ t 2.v.*.O.M M t t | ",
", / , > , , > c H.] < = , ~ 1 1 , / , > , , > Z i.5 < = = < < 1 , / , > , , > c H.] < = , ~ 1 1 , / , > , , > Z i.5 < = = < < 1 ",
"> > = > , > = c T. ./ 1 ^ ^ > > > * = > , > > v r.~ 1 1 < , > > > > = > , > = c T. ./ 1 ^ ^ > > > * = > , > > v r.~ 1 1 < , > > ",
"> > , = = * * Z T.] , , , ~ , > * o * = = * * F h.5 < , > > > > > > , = = * * Z T.] , , , ~ , > * o o = = * * F h.5 < , > > > > ",
"> 3 2 < = = = F H.e 5 2 = = > = = * - < = = > G u.4 3 > = > > 3 > 3 2 < = = = F H.e 5 2 = = > = = * * = = = > G u.4 3 > = > > 3 ",
"> 2 , , > > > F R.{ > = = , , > = > , , > > > Z u., > = > , , , > 2 , , > > > F R.{ 2 = = , , > = > , , > > > Z u., > = > , , , ",
"n u % % % % % Q !.>.a % % @ @ $ & % @ 8 # @ @ Q n.=.m k + O & 9 n u % % % % % Q !.>.M % % @ @ $ & % @ 8 # @ @ Q n.=.m k + O & 9 ",
"^.K.m.m.m.V.B.L.R.D.B.M.M.m.g.V.W.U.B.m.b.l.l.Z.L.Z.n.G.g.B.M.K.^.K.m.m.m.V.B.L.R.D.B.M.M.m.g.V.W.U.B.m.b.l.l.Z.L.Z.n.G.g.B.M.K.",
"J.$.| $. .@.&.%.+.| X. .t p r ,.Q.>.X.+. .+.@.%.+.{ { o.r M O.j.J.$.| $. .@.&.%.+.| X. .t p r ,.Q.>.X.+. .+.@.%.+.{ { o.r M O.j.",
"h.2 , , ^ ( ) ' ~ ~ = * = * ; y I.O., , ~ ( ) ' ~ 5 o * = - ; s.h.2 , , ^ ( ) ' ~ ~ = * = * ; y K.O., , ~ ( ) ' ~ 5 o * = - ; s.",
"j.5 o o * 2 ~ ^ , > o * * , , d L.X.o o > 3 ~ ` > > X * * , , 6.j.5 o o * 2 ~ ^ , > o * * , , d L.X.o o > 3 ~ ` > > X * * , , 6.",
"v.: = = * * 2 ~ > > > , > > = l L.a * = = 2 3 ^ > > > , > = = 8.v.: = = * * 2 ~ > > > , > > = l L.a * = = 2 3 ^ , > > , > > = 8.",
"k.5 > = = 2 , ` , , > = ; - o h L.O.> * = 2 > ~ , , > = ; - o 5.k.5 > = = 2 , ` , , > = ; - o h L.O.> * = 2 , ~ , , > = ; - o 5.",
"M.8 * o * = * > * * o * X X   Z L.B ; o o = * = o = o o o o . e.M.8 * o * = * > * * o * X X   Z L.B ; o o = * = o = o o o o . e.",
"Q.e.Q T W ! ! W T W W 0.E W 0.z.Q.V.e.! I W W T Q ! I W ! q.s.Y.Q.e.Q T W ! ! W T W W 0.E W 0.z.Q.V.e.! I W W T Q ! I W ! q.s.Y.",
"D.D.C.k.C.A.v.B.R.H.p.y.3.9.h.h.h.f.d.t.h.n.d.S.~.T.Z.Z.C.C.k.C.D.D.C.k.C.A.v.B.R.H.p.y.3.9.h.h.h.f.d.t.h.n.d.S.~.T.Z.Z.C.C.k.C.",
"w r 7 : 5 _ 4 K L.*.< = = = < 4 < 2 5 = 2 _ 4 S Z.O.w : 4 5 4 e w r 7 : 5 _ 4 K L.*.< = = = < 4 < 2 5 = 2 _ 4 S Z.O.w : 4 5 4 e ",
", / , > , , > K T.] < = = < < < , / , > , , , l F.] < * = < < , , / , > , , > K T.[ < = = < < < , / , > , , , l F.] < * = < < , ",
"> > > > , > > K R.../ , ^ , = > , , > > , > > v R. .1 1 < , > = > > > > , > > K R.../ , ^ , = > , , , > , > > v R. .1 1 < , > = ",
"= = = = = * * K T.] 2 < , ~ , > * = = = = * * b T.] 2 2 > , , > = = = = = * * K T.] 2 < , ~ , > * = = = = * * b T.] 2 2 > , , > ",
"2 2 * = = = > L F.r o > = = > > ; 2 - = = = > C C.e 5 > = > > > 2 2 * = = = > L F.r o > = = > > ; 2 - = = = > C C.e 5 < = > > 2 ",
"= = 2 > = > = 1.C.{ = = > > > > = = > > = > > v Z.e = * = , , , = = 2 > = > = 1.C.{ = = > > > > = = > > = > > v Z.e = * = , , , ",
"N C C A C C P K.L.P g s s s s l l g d d d g l 0.R.:.v c v z C S N C C A C C P K.L.P g s s s s l l g d d d g l 7.R.:.z c v z C S ",
"W.G.L.R.L.T.T.L.G.G.S.L.L.G.G.K.W.K.M.M.c.m.M.Z.L.B.b.B.B.x.b.Y.W.G.L.R.L.T.T.L.G.G.S.L.L.G.G.K.W.K.M.M.c.m.M.Z.L.B.b.N.B.x.b.Y.",
"Z.#.| +.+.X.| } [ | X. .t q t 1.R.;.| | [ +.@...+.| t | t i t w.Z.#.| +.+.X.| } [ | X. .t q t 1.R.;.| | [ +.@...+.| t | t i t w.",
"Z.w , , ~ ; 3 ) ~ 3 = > = - - x D.r , , ` ( ) ' ~ 5 > = = ; ; 5.Z.w , , ~ ; 3 ) ~ 3 = > = - - x D.r , , ` ( ) ' ~ 5 > = = ; ; 5.",
"C.7 o o * = = ~ , ~ , > * , > f Z.r o * ^ 3 ^ ^ > > * = * , , Y C.7 o o * = = ~ , ~ , > * , > f Z.r o * ^ 3 ^ ^ > > * = * , , Y ",
"M.6 = * = ^ > ~ , > > > > > * c D.0 = = = 2 , ^ > > , , > > = U M.6 = * = ^ > ~ , > > > > > * c D.0 = = = 2 , ^ > > , , > > = U ",
"F.w > = = > , ^ , , > ; ; - X l M.r > = > 2 , ^ ~ , , ; ; - X U F.w > = = > , ^ , , > ; ; - X l M.r > = > 2 , ^ ~ , , ; ; - X U ",
"F.w = * = > > > = > = > * * X j n.M = * = 2 = 2 > > * = * * X R F.w = * = > > , = > = > * * X j n.M > * = 2 = 2 > > * = * * X R ",
"E.4.V C C Z Z Z v b F G b b D 5.G.a.R J R R 7.8.<.<.J J J H F s.E.4.V C C Z Z Z v b F G b b D 5.G.a.R J R R 7.8.<.<.J J J H F s.",
"R.B.s.s.b.b.m.K.K.Q.R.!.R.L.H.T.L.I.I.L.L.D.G.Q.Q.!.R.!.E.L.L.L.R.B.s.s.b.b.m.K.K.Q.R.!.R.L.H.T.L.I.I.L.L.D.G.Q.Q.!.R.!.E.L.L.L.",
"{ { { t | ] t Y D.-.O.M t t t { t {  .t | [ t 2.v.*.O.M M t t | { { { t | ] t Y D.-.O.M t t t { t {  .t | [ t 2.v.*.O.M M t t | ",
", / , > , , > c H.] < = , ~ 1 1 , / , > , , > Z i.5 < = = < < 1 , / , > , , > c H.] < = , ~ 1 1 , / , > , , > Z i.5 < = = < < 1 ",
"> > = > , > = c T. ./ 1 ^ ^ > > > * = > , > > v r.~ 1 1 < , > > > > = > , > = c T. ./ 1 ^ ^ > > > * = > , > > v r.~ 1 1 < , > > ",
"> > , = = * * Z T.] , , 1 ~ , > * o o = = * * F h.5 < , > > > > > > , = = * * Z T.] , , 1 ~ , > * o o = = * * F h.5 < , > > > > ",
"> 3 2 < = = = F H.e 5 2 = = > = = * * = = = > G u.4 3 > = > > 3 > 3 2 < = = = F H.e 5 2 = = > = = * * = = = > G u.4 3 > = > > 3 ",
"> 2 , , > > > F R.{ > = = , , > = > , , > > > D u., < = > , , , > 2 , , > > > F R.{ > = = , , > = > , , > > > D u., < = > , , , ",
"n u % % % % % Q !.>.M % % @ @ $ & % @ 8 # @ @ Q n.=.m k + O & 9 n u % % % % % Q !.>.M % % @ @ $ & % @ 8 # @ @ Q n.=.m k + O & 9 ",
"^.K.m.m.m.V.B.L.R.D.B.M.M.m.g.V.W.U.B.m.b.l.l.Z.L.Z.n.G.g.B.M.K.^.K.m.m.m.V.B.L.R.D.B.M.M.m.g.V.W.U.B.m.b.l.l.Z.L.Z.n.G.g.B.M.K.",
"J.$.| $. .@.&.%.+.| X. .t p r ,.Q.>.X.+. .+.@.%.+.{ { o.r M O.j.J.$.| $. .@.&.%.+.| X. .t p r ,.Q.>.X.+. .+.@.%.+.{ { o.r M O.j.",
"h.2 , , ^ ( ) ' ~ ~ = * = * ; y K.O.> , ~ ( ) ' ~ 5 o * = - ; s.h.2 , , ^ ( ) ' ~ ~ = * = * ; y K.O.> , ~ ( ) ' ~ 5 o * = - ; s.",
"j.5 o o * 2 ~ ^ , > o * * , , d L.X.o o > 3 ~ ` > > X * * , , 6.j.5 o o * 2 ~ ^ , > o * * , , d L.X.o o > 3 ~ ` > > X * * , , 6.",
"v.: = = * * , ~ > > > , > > = l L.a * = = 2 3 ^ , > > , > > = 8.v.: = = * * , ~ > > > , > > = l L.a * = = 2 3 ^ , > > , > > = 8.",
"k.5 > = = 2 , ` , , > = ; - o h L.O.> * = 2 , ~ , , > = ; - o 5.k.5 > = = 2 , ` , , > = ; - o h L.O.> * = 2 , ~ , , > = ; - o 5.",
"M.8 * o * = * > * * o * X X   Z L.B ; o o = * = o = o o o o . e.M.8 * o * = * > * * o * X X   Z L.B ; o o = * = o = o o o o . e.",
"Q.e.Q T W ! ! W T W W 0.E W 0.z.Q.V.e.! I W W I Q ! I W ! q.s.Y.Q.e.Q T W ! ! W T W W 0.E W 0.z.Q.V.e.! I W W I Q ! I W ! q.s.Y.",
"D.D.C.k.C.A.v.B.R.H.p.y.3.9.h.h.h.f.d.t.h.n.d.S.~.T.Z.Z.C.C.k.C.D.D.C.k.C.A.v.B.R.H.p.y.3.9.h.h.h.f.d.t.h.n.d.S.~.T.Z.Z.C.C.k.C.",
"w r 7 : 5 _ 4 K L.*.< = = = < 4 < 2 5 = 2 _ 4 S Z.O.w : 4 5 4 e w r 7 : 5 _ 4 K L.*.< = = = < 4 < 2 5 = 2 _ 4 S Z.O.w : 4 5 4 e ",
", / , > , , > K T.] < = = < < < , / , > , , , l F.] < * = < < , , / , > , , > K T.] < = = < < < , / , > , , , l F.] < * = < < , ",
"> > > > , > > K R.../ , ^ , = > , , , > , > > v R. .1 1 < , > = > > > > , > > K R.../ , ^ , = > , , , > , > > v R. .1 1 < , > = ",
"= = = = = * * K T.] 2 < , ~ , > * = = = = * * b T.] 2 2 > , , > = = = = = * * K T.] 2 < , ~ , > * = = = = * * b T.] 2 2 > , , > ",
"2 2 * = = = > L F.r o > = = > > ; 2 - = = = > C C.e 5 < = > > 2 2 2 * = = = > L F.r o > = = > > ; 2 - = = = > C C.e 5 < = > > 2 ",
"= = 2 > = > = 1.C.{ = = > > > > = = > > = > > v Z.e = * = , , , = = 2 > = > = 1.C.{ = = > > > > = = > > = > > v Z.e = * = , , , ",
"N C C A C C P K.L.P g s s s s l l g d d d g l 7.R.:.z c v z C S N C C A C C P K.L.P g s s s s l l g d d d g l 7.R.:.z c v z C S ",
"W.G.L.R.L.T.T.L.G.G.S.L.L.G.G.K.W.K.M.M.c.m.M.Z.L.B.b.N.B.x.b.Y.W.G.L.R.L.T.T.L.G.G.S.L.L.G.G.K.W.K.M.M.c.m.M.Z.L.B.b.N.B.x.b.Y.",
"Z.#.| +.+.X.| } [ | X. .t q t 1.R.;.| | [ +.@...+.| t | t i a w.Z.#.| +.+.X.| } [ | X. .t q t 1.R.;.| | [ +.@...+.| t | t i a w.",
"Z.w , , ~ ; 3 ) ~ 3 = > = - - x D.r , , ` ( ) ' ~ 5 > = = ; ; 5.Z.w , , ~ ; 3 ) ~ 3 = > = - - x D.r , , ` ( ) ' ~ 5 > = = ; ; 5.",
"C.7 o o * = = ~ , ~ , > * , > f Z.r o * ^ 3 ^ ^ > > * = * , , Y C.7 o o * = = ~ , ~ , > * , > f Z.r o * ^ 3 ^ ^ > > * = * , , Y ",
"M.6 = * = ^ > ~ , > > > > > * c D.0 = = = 2 , ^ > > , , > > = U M.6 = * = ^ > ~ , > > > > > * c D.0 = = = 2 , ^ > > , , > > = U ",
"F.w > = = > , ^ , , > ; ; - X l M.r > = > 2 , ^ ~ , , ; ; - X U F.w > = = > , ^ , , > ; ; - X l M.r > = > 2 , ^ ~ , , ; ; - X U ",
"F.w = * = > > > = > = > * * X j n.M = * = 2 = 2 > > * = * * X R F.w = * = > > > = > = > * * X j n.M = * = 2 = 2 > > * = * * X R ",
"E.4.V C C Z Z Z v b F G b b D 5.G.a.R J R R 7.8.<.<.J J J H F s.E.4.V C C Z Z Z v b F G b b D 5.G.a.R J R R 7.8.<.<.J J J H F s."
};
