/* XPM */
static char *_9edfcac04374e208009f6ddad1b39e7CDn138XzmLmXTw8x[] = {
/* columns rows colors chars-per-pixel */
"64 64 20 1 ",
"  c #A06723",
". c #A36A25",
"X c #A46B27",
"o c #A56C27",
"O c #A66D29",
"+ c #A86F2B",
"@ c #A9702B",
"# c #AB722D",
"$ c #AD732F",
"% c #AD742F",
"& c #AE7530",
"* c #B07732",
"= c #B27833",
"- c #B37935",
"; c #B47B35",
": c #B67D37",
"> c #B77D38",
", c #B97F3A",
"< c #BA803B",
"1 c #BC823C",
/* pixels */
"=*$#&&%*O+;**%O$*-&#&$$O;*#=&%+O=*$#&&%*O+;**%O$*-&#&$$O;*#=&%+O",
"-##$%&&#$:$o#$O@%&$***&-<*&$+$&%-##$%&&#$:$o#$O@%&$***&-<*&$+$&%",
"&**$$$#&*&+::**->=&&**&*=$=%$#&&&**$$$#&*&+::**->=&&**&*=$=%$#&&",
"&#O#-&=-$O%*%*#$$&-*&&*&%-%%*&&=&#O#-&=-$O%*%*#$$&-*&&*&%-%%*&&=",
"*#%#+#-&$$$#$#$@#%O$-#+$%%$$&%$$*#%#+#-&$$$#$#$@#%O$-#+$%%$$&%$$",
"&=;@O&**&*-$*&$*$+XXO##$**&&$%$&&=;@O&**&*-$*&$*$+XXO##$**&&$%$&",
"&$***$&*%$$&=&&%&&$$+%*&&*$&X$&&&$***$&*%$$&=&&%&&$$+%*&&*$&X$&&",
"###&$$%*&&+#&=:*&&%=,;&*@&=&#-&-###&$$%*&&+#&=:*&&%=,;&*@&=&#-&-",
"&==*&$$+$%#&&*&#$&$$#&%&%%&&$+&&&==*&$$+$%#&&*&#$&$$#&%&%%&&$+&&",
"&$&*%**&**&$+-O.O&&&%&%**&&&$#&*&$&*%**&**&$+-O.O&&&%&%**&&&$#&*",
"*&#;**&#+&&$$%#$=:&$%&&$&&&*==-&*&#;**&#+&&$$%#$=:&$%&&$&&&*==-&",
"&=*&*=%#&$$&$@*-*&&**&$$*&*&*$&*&=*&*=%#&$$&$@*-*&&**&$$*&*&*$&*",
"##=&$#%*%#+###$$#$&*%***%%&#@%--##=&$#%*%#+###$$#$&*%***%%&#@%--",
"-*%&&*&$#*:>;;-*&$%%##$%$#@#%&$#-*%&&*&$#*:>;;-*&$%%##$%$#@#%&$#",
"%=>;:>;*;>:,<:--,=#@*;*===#+#%$$%=>;:>;*;>:,<:--,=#@*;*===#+#%$$",
".%;*$+*-:-#=,,*#;*=;;$XX.&-*=*$*.%;*$+*-:-#=,,*#;*=;;$XX.&-*=*$*",
"X#*:-O%;:&X+&;:;-&;,:$X. X+@O. .X#*:-O%;:&X+&;:;-&;,:$X. X+@O. .",
"*&=***&#$#OXO@-,:&%&;;*$..XOX.o#*&=***&#$#OXO@-,:&%&;;*$..XOX.o#",
"%&&$#$%$$&$+OO#*=#OO#;>,+#$$#$&&%&&$#$%$$&$+OO#*=#OO#;>,+#$$#$&&",
"##&&*%&$%-%$$&###$&$#$*-;*$**#$$##&&*%&$%-%$$&###$&$#$*-;*$**#$$",
"&&*******%*%$#%%&&$%%%#%&##&-&=#&&*******%*%$#%%&&$%%%#%&##&-&=#",
"&&*&=*&&&*%%&*$%=&*=&%&&$$**&**%&&*&=*&&&*%%&*$%=&*=&%&&$$**&**%",
"*%&%*$%*&&-**&=&%=$O#&=,,**=*&*;*%&%*$%*&&-**&=&%=$O#&=,,**=*&*;",
"O$*%$##+$&$%&&%$$$+O%**&$$**&&&*O$*%$##+$&$%&&%$$$+O%**&$$**&&&*",
"-&&$%&&&=$+&$$=*#%**$##%&%$*&##%-&&$%&&&=$+&$$=*#%**$##%&%$*&##%",
"&%&&=&&*$&%$&%&$&*%#$&&&&&*%$$$&&%&&=&&*$&%$&%&$&*%#$&&&&&*%$$$&",
"$%&%&&%%$&*%%***%*&*$$=&%&&*-&**$%&%&&%%$&*%%***%*&*$$=&%&&*-&**",
"O%$$#&$+#&&$#$&=$=,,;#%$%$-$@-&&O%$$#&$+#&&$#$&=$=,,;#%$%$-$@-&&",
"$%#%%&*$&$=,,,-$OOO#&@&&*=%&&$&&$%#%%&*$&$=,,,-$OOO#&@&&*=%&&$&&",
"=*&&=-&$&&;<;$**%$$:<&&-,1<=#&%&=*&&=-&$&&;<;$**%$$:<&&-,1<=#&%&",
"$$%-$$**&&&&$$*>,;&**O+##%&+**=-$$%-$$**&&&&$$*>,;&**O+##%&+**=-",
"$#:#OOO&$*$*&O#+O&&$$##$#$%$&&$=$#:#OOO&$*$*&O#+O&&$$##$#$%$&&$=",
"=*$#&&%*O+;**%O$*-&#&$$O;*#=&%+O=*$#&&%*O+;**%O$*-&#&$$O;*#=&%+O",
"-##$%&&#$:$o#$O@%&$***&-<*&$+$&%-##$%&&#$:$o#$O@%&$***&-<*&$+$&%",
"&**$$$#&*&+::**->=&&**&*=$=%$#&&&**$$$#&*&+::**->=&&**&*=$=%$#&&",
"&#O#-&=-$O%*%*#$$&-*&&*&%-%%*&&=&#O#-&=-$O%*%*#$$&-*&&*&%-%%*&&=",
"*#%#+#-&$$$#$#$@#%O$-#+$%%$$&%$$*#%#+#-&$$$#$#$@#%O$-#+$%%$$&%$$",
"&=;@O&**&*-$*&$*$+XXO##$**&&$%$&&=;@O&**&*-$*&$*$+XXO##$**&&$%$&",
"&$***$&*%$$&=&&%&&$$+%*&&*$&X$&&&$***$&*%$$&=&&%&&$$+%*&&*$&X$&&",
"###&$$%*&&+#&=:*&&%=,;&*@&=&#-&-###&$$%*&&+#&=:*&&%=,;&*@&=&#-&-",
"&==*&$$+$%#&&*&#$&$$#&%&%%&&$+&&&==*&$$+$%#&&*&#$&$$#&%&%%&&$+&&",
"&$&*%**&**&$+-O.O&&&%&%**&&&$#&*&$&*%**&**&$+-O.O&&&%&%**&&&$#&*",
"*&#;**&#+&&$$%#$=:&$%&&$&&&*==-&*&#;**&#+&&$$%#$=:&$%&&$&&&*==-&",
"&=*&*=%#&$$&$@*-*&&**&$$*&*&*$&*&=*&*=%#&$$&$@*-*&&**&$$*&*&*$&*",
"##=&$#%*%#+###$$#$&*%***%%&#@%--##=&$#%*%#+###$$#$&*%***%%&#@%--",
"-*%&&*&$#*:>;;-*&$%%##$%$#@#%&$#-*%&&*&$#*:>;;-*&$%%##$%$#@#%&$#",
"%=>;:>;*;>:,<:--,=#@*;*===#+#%$$%=>;:>;*;>:,<:--,=#@*;*===#+#%$$",
".%;*$+*-:-#=,,*#;*=;;$XX.&-*=*$*.%;*$+*-:-#=,,*#;*=;;$XX.&-*=*$*",
"X#*:-O%;:&X+&;:;-&;,:$X. X+@O. .X#*:-O%;:&X+&;:;-&;,:$X. X+@O. .",
"*&=***&#$#OXO@-,:&%&;;*$..XOX.o#*&=***&#$#OXO@-,:&%&;;*$..XOX.o#",
"%&&$#$%$$&$+OO#*=#OO#;>,+#$$#$&&%&&$#$%$$&$+OO#*=#OO#;>,+#$$#$&&",
"##&&*%&$%-%$$&###$&$#$*-;*$**#$$##&&*%&$%-%$$&###$&$#$*-;*$**#$$",
"&&*******%*%$#%%&&$%%%#%&##&-&=#&&*******%*%$#%%&&$%%%#%&##&-&=#",
"&&*&=*&&&*%%&*$%=&*=&%&&$$**&**%&&*&=*&&&*%%&*$%=&*=&%&&$$**&**%",
"*%&%*$%*&&-**&=&%=$O#&=,,**=*&*;*%&%*$%*&&-**&=&%=$O#&=,,**=*&*;",
"O$*%$##+$&$%&&%$$$+O%**&$$**&&&*O$*%$##+$&$%&&%$$$+O%**&$$**&&&*",
"-&&$%&&&=$+&$$=*#%**$##%&%$*&##%-&&$%&&&=$+&$$=*#%**$##%&%$*&##%",
"&%&&=&&*$&%$&%&$&*%#$&&&&&*%$$$&&%&&=&&*$&%$&%&$&*%#$&&&&&*%$$$&",
"$%&%&&%%$&*%%***%*&*$$=&%&&*-&**$%&%&&%%$&*%%***%*&*$$=&%&&*-&**",
"O%$$#&$+#&&$#$&=$=,,;#%$%$-$@-&&O%$$#&$+#&&$#$&=$=,,;#%$%$-$@-&&",
"$%#%%&*$&$=,,,-$OOO#&@&&*=%&&$&&$%#%%&*$&$=,,,-$OOO#&@&&*=%&&$&&",
"=*&&=-&$&&;<;$**%$$:<&&-,1<=#&%&=*&&=-&$&&;<;$**%$$:<&&-,1<=#&%&",
"$$%-$$**&&&&$$*>,;&**O+##%&+**=-$$%-$$**&&&&$$*>,;&**O+##%&+**=-",
"$#:#OOO&$*$*&O#+O&&$$##$#$%$&&$=$#:#OOO&$*$*&O#+O&&$$##$#$%$&&$="
};
