/* XPM */
static char *e65df9471d0e46df9e8fb94b35217ab9Yy0rn8p98KcDE8hG[] = {
/* columns rows colors chars-per-pixel */
"64 64 16 1 ",
"  c #C3C3C3",
". c #C6C6C6",
"X c gray79",
"o c gray81",
"O c #D2D2D2",
"+ c #D7D7D7",
"@ c #DADADA",
"# c #DFDFDF",
"$ c gray89",
"% c #E7E7E7",
"& c #EAEAEA",
"* c #EEEEEE",
"= c gray95",
"- c #F6F6F6",
"; c #FBFBFB",
": c #FEFEFE",
/* pixels */
":::::::::::::::::::::::::;::::;;;;;;;;;;---------==---------=$&&",
"::::::::::::::::::::::;;;;:::;;;;;;;;;;;----------==--------=$&&",
":::::::;:::;;;:;;;::;;:;;;;;;;;;;;;;;;;;;------&------------=$&&",
"::::::::::::;;;:;;:;-;:;:;;:;;;;;;;;;;;;;;----==------------*$&&",
":;;::;;;;;;:::;;;;;;;;;::;=*&&&&&&&&&&&&*==---=-------------$%&*",
";;;;;;;;;;:::::;:;;;;=&%$$$$$%%%%%%%&&%&&&&&%%&&**===------&#***",
";;;;;;;;;;:::::::-**&$#$$%$%%%%&&&&&&&*****&&&&********&&%$%****",
";;;;;;;;:::::::-&#$%%$%$%%%%&&&&&&*************==**********=*=*=",
";;;;;;:::::::-%$$$$$$&$%%%%%&&&****======*=*==------=====-======",
";;;;:;:::::;&$%$$$$$%$%%&&&&***======---===-;;;;;;;;;;;;--------",
";;;::::::;*$%%$$$$$$%&&&****====-----;;;---;;:::;-*&%$$$$$$$%%%&",
";:::::::-%%%$$$$$%%&&***====-----;;;;::::;::;=%#####$$$$$$%%%%%&",
";:::::;*$%$$#$$%&&***====----;;;;;::::::::-%####$$$$$$%%%%&&&&&&",
";:;;;-&%$##$%&&&***===------;;::::::::::=$#####$$$$$$%%%&&&&&***",
";;;;-%%$##%%&***====----;;;;;:::::::::-$@######$$$$%%&&&&******=",
";;;=%$##$%&**=====----;;;;;:::::::::;&########$$%%%&&&***======-",
";;*%$#$%&**====------;;;;::::::::::-$#######$$%%&&&***=====----;",
"-&$##%**=====------;--;;:::::::::;=#####@##%%&&&*****==-----;;;;",
"$##%&*======-------;-;;;::::::::;*###@@#$$%%&&***====---;;;;::::",
"#%**======--------;;;;;;::::::;;*##@@@#$%%&&***=====--;;;;::::::",
"**====-=----------;;;;;;;;:;;;-*##@@#$%&&&***====----;;;::::::::",
"====--------------;;;;;;;;;;;-*$#@#$%%&&***=====---;;;;:::::::::",
"====-------------;;;;;;;;;;;-*#@@#$%&&***=====----;;;::::::::::*",
"---------------;;;-;;;;;;;;-=$@+#$&&****=====----;;;;::::::::;*@",
"--==----------;;-;;;;;;;;--=$@@$%&&***======-----;;;::::::::;*#@",
"-------------;;;;;;;;;;;;-=%@@$%&****======------;;;;:;:::;;=@@+",
"------------;;;;;;;;;;;=--$@@$&*****=======-----;;;;;;;;;;;-#@++",
"-----------;;;;;;;;;;----$+#%&****===========-----;;;;;;;;-%@++@",
"-----------;;;;;;;;;;===$+#&****===============--;;;-;;;--*#++@#",
"----------;;;;;;;;;-==*@+$&***===============--=--;;;----=$@+@#$",
"------------;;;;;--==&++%&**================;---=-------=&@O+#$%",
"-----------;;;----==%O@&***=================-=-=--------=#O+#$%&",
"----------;;------=$O$&***==**===============----------=&++#$%%&",
"--------;;;;----=*++$****===*===============-----------=#O@$%&&&",
"-----;;;;;;;;---%O@%*****===============---==---------=*O+$%&&&&",
"-----;;;;;;;;--$o#&******===**==========--=-----------=$O#%&&&&*",
"----;;;;;;---=@O%********===============--=-----------=+@%&&&***",
"----;;;;----&o@&**********===============------------=&O#%&&****",
"----------=#o$&***********===*===========---==------==@+%&&&****",
"---------*OO%*************===============-===----=--=*O#&&&*****",
"--------$X@&**************===*===========-----------=%O%&&&*****",
"------=+X$&***************===*============----==---==+#%&&&*****",
"-----&X+%&****************=====*=========---====---=*o$&&&&*****",
"---=@.#&******************=====*==========---===--==#+%&*&&*****",
"--*Xo$&&&*****************================--------==O$&&&&&&****",
"-# +%&&*******************================-=----===&O%&&&&******",
"oX$&&&&&******************===================---===@@&&&&&&*&***",
"O%&&&&&&******************===================--====O$&&&&&&&&&**",
"%&&&&&&**&******************==================-===%O%&&&&&&&&&**",
"&&&&&&&&&****************=**======================@#%&&&&&&&&&**",
"&&&&&&&&&*****************=====================*=*o$&&&&&&&&&&**",
"&&&&&&&&&****************======================*=$O%&&&&&&&&&&&&",
"&&*&&&&&&**********&&&***=====================**=O#&&&&&&&&&&&&&",
"&&&&&&&&&*********&******====================****X$%&&&&&&&&&&&&",
"&&&&&&&&&********&**=**&*=*=================***=#+%&%&&&&&&&&&&&",
"&&&&&&&&&&*******&*==***=**=================**==o#%%%&&&&&&&&&&&",
"&&&&&&&&&********&**&=**==================***==&X$%&%&&&&&&&&&&&",
"&&&&&&&&&*********&*****================****===@+%&&%%&&&&&&&&&&",
"&&&&&&&&***********&&**=================*=*====X#%&&%&&&&&&&&&&&",
"&&&&&&&&**************==*===============**====%X$%%%%%%&&&&&&&&&",
"&&&&&&&&&*************==**====================++%%&%%&%&&&&&&&&&",
"&&&&&&&&&*************==**===================*.#%%%%%&&&&&&&&&&&",
"&&&&&&&&&*************==**===================$X$%%%&&&&&&&&&&&&&",
"&&&&&&&&**************===*===================O+%%%%%&&&&&&&&&&&&"
};
