/* XPM */
static char *_7135816d5624ec9e39d9a63aa0dd6debkMzElqG8M4tt5Te[] = {
/* columns rows colors chars-per-pixel */
"64 64 32 1 ",
"  c #808080",
". c gray53",
"X c #8B8B8B",
"o c #8D8D8D",
"O c gray57",
"+ c gray58",
"@ c #9B9B9B",
"# c #9F9F9F",
"$ c gray63",
"% c #A5A5A5",
"& c #A9A9A9",
"* c gray68",
"= c gray70",
"- c #B6B6B6",
"; c gray73",
": c gray74",
"> c #C1C1C1",
", c gray77",
"< c #CACACA",
"1 c #CDCDCD",
"2 c #D0D0D0",
"3 c #D7D7D7",
"4 c #D8D8D8",
"5 c #DDDDDD",
"6 c #E1E1E1",
"7 c #E4E4E4",
"8 c gray92",
"9 c #ECECEC",
"0 c #F1F1F1",
"q c #F4F4F4",
"w c gray98",
"e c gray99",
/* pixels */
"e0q0w0q0qqqq0qw0qwwwq0w0qewq0w7oe0q0w0q0qqqq0qw0qwwwq0w0qewq0w7o",
"0&;*7%;$:,>:=,6&>553,%4=;6,>%5@ 0&;*7%;$:,>:=,6&>553,%4=;6,>%5@ ",
"q;:>5:>;$<=o-41%%>*=;;>,>#O-,:X q;:>5:>;$<=o-41%%>*=;;>,>#O-,:X ",
"0&->&:<6<92=>:0;%,31&--5>;:<5<X 0&->&:<6<92=>:0;%,31&--5>;:<5<X ",
"e6*56>>:-:4,#1>*:4;&62%=@-;7*3O e6*56>>:-:4,#1>*:4;&62%=@-;7*3O ",
"w44@:>1:O=9;$*$3,:=*3>7*&=@21-X w44@:>1:O=9;$*$3,:=*3>7*&=@21-X ",
"eq:@;:65=183:;$,5*&>&.,:$#&#1#  eq:@;:65=183:;$,5*&>&.,:$#&#1#  ",
"e91-:X$&#;%$,-#132;24*+O36*&%-X e91-:X$&#;%$,-#132;24*+O36*&%-X ",
"w31&6%1&;%%,,6;;:+>280>;:#<%7,X w31&6%1&;%%,,6;;:+>280>;:#<%7,X ",
"e5+>2;-6*o>1%264-X%>2<$%;:#,7>X e5+>2;-6*o>1%264-X%>2<$%;:#,7>X ",
"0=&&*19;%+&,&:>+&=$-%:-&<,>5;-X 0=&&*19;%+&,&:>+&=$-%:-&<,>5;-X ",
"q:3&3;5:=;:<+*2--<&=12&28<>:=-X q:3&3;5:=;:<+*2--<&=12&28<>:=-X ",
"w2>,<&<:7$%-&&@#**>>8;->>>>>4*. w2>,<&<:7$%-%&@#**>>8;->>>>>4*. ",
"0*2<4<2*2*2&X,2;1>=,6;<=1,2=1$. 0*2<4<2*2*2&X,2;1>=,6;<=1,2=1$. ",
"0=:%$$$$$*;+o=-==$o&*X=O-&;O-%. 0=:%$$$$$*;+o=-==$o&*X=O-&;O-%. ",
";.                              ;.                              ",
">>>>>>>>>>>>>>>>#$>>>>>>>>>>>>>>>>>>>>>>>>>>>>>>#$>>>>>>>>>>>>>>",
"60,43>4555580595@,85,;2q7>34>35560,43>4555580595@,85,;2q7>34>355",
"%214,,-*4>197><* ,91*%;;:*3,<5>$%214,,-*4>197><* ,91*%;;:*3,<5>$",
"262-<9::9>;=,77- ,2;%=43>5:>05:X262-<9;:9>;=,77- ,2;%=43>5:>05:X",
"-35&*q3#%$;->19* ,11:#66,1+-2>:*=35&*q3#%$;->19* ,11:#66,1+-2>:*",
"2:*;-2>X-41*,:5- ,473=72>>1>#;>>2:*;-2>X-41*,:5- ,473=72>>1>#;>>",
"2:&%3&4%%67$%*=& ,>;,>17&O$;*@:72:&%3&4%%67$%*=& ,>;,>17&O$;*@:7",
",6>-,-<,3-&;,72$ ,2#O=>1-*=:>3>%,6>-,-<,3-&;,72$ ,2#O=>1-*=:>3>%",
":*514#-+&:,1;8<$ ,:%=;69<@O-><>=:*514#-+&:,1;8<$ ,:%=;69<@O-><>=",
"7:<:%=,3>97,&>9; ,9<$=<1>-=>6,:@7:<:%=,3>97,&>9; ,9<$=<1>-=>6,:@",
"&4&64>,<,1,:;22o ,,=3<#=#->6*@56&4&64>,<,1,:;22o ,,=3<#=#->6*@56",
"=13&,<7<7=$=$,>@ ,-&63;@1<#5:O:$=13&,<7<7=$=$,>@ ,-&63;@1<#5:O:$",
"@::+;<6*6&73;::$ ,2:%2<;,7:%3@;=@::+;<6*6&73;::$ ,2:%2<;,7:%3@;=",
"4:;==@:>6--$;%$# ,;,%*#2,>:=#=3+4:;==@:>6--$;%$# ,;,%*#2,>:=#=3+",
"OXXXX XoOX. X... :*o.. ooXXX XO OXXXX XoOX. X... :*o.. ooXXX XO ",
"                 X.                              X.             ",
"e0q0w0q0qqqq0qw0qwwwq0w0qewq0w7oe0q0w0q0qqqq0qw0qwwwq0w0qewq0w7o",
"0&;*7%;$:,>:=,6&>553,%4=;6,>%5@ 0&;*7%;$:,>:=,6&>553,%4=;6,>%5@ ",
"q;:>5:>;$<=o-41%%>*=;;>,>#O-,:X q;:>5:>;$<=o-41%%>*=;;>,>#O-,:X ",
"0&->&:<6<92=>:0;%,31&--5>;:<5<X 0&->&:<6<92=>:0;%,31&--5>;:<5<X ",
"e6*56>>:-:4,#1>*:4;&62%=@-;7*3O e6*56>>:-:4,#1>*:4;&62%=@-;7*3O ",
"w44@:>1:O=9;$*$3,:=*3>7*&=@21-X w44@:>1:O=9;$*$3,:=*3>7*&=@21-X ",
"eq:@;:65=183:;$,5*&>&.,:$#&#1#  eq:@;:65=183:;$,5*&>&.,:$#&#1#  ",
"e91-:X$&#;%$,-#132;24*+O36*&%-X e91-:X$&#;%$,-#132;24*+O36*&%-X ",
"w31&6%1&;%%,,6;;:+>280>;:#<%7,X w31&6%1&;%%,,6;;:+>280>;:#<%7,X ",
"e5+>2;-6*o>1%264-X%>2<$%;:#,7>X e5+>2;-6*o>1%264-X%>2<$%;:#,7>X ",
"0=&&*19;%+&,&:>+&=$-%:-&<,>5;-X 0=&&*19;%+&,&:>+&=$-%:-&<,>5;-X ",
"q:3&3;5:=;:<+*2--<&=12&28<>:=-X q:3&3;5:=;:<+*2--<&=12&28<>:=-X ",
"w2>,<&<:7$%-%&@#**>>8;->>>>>4*. w2>,<&<:7$%-%&@#**>>8;->>>>>4*. ",
"0*2<4<2*2*2&X,2;1>=,6;<=1,2=1$. 0*2<4<2*2*2&X,2;1>=,6;<=1,2=1$. ",
"0=:%$$$$$*;+o=-==$o&*X=O-&;O-%. 0=:%$$$$$*;+o=-==$o&*X=O-&;O-%. ",
";.                              ;.                              ",
">>>>>>>>>>>>>>>>#$>>>>>>>>>>>>>>>>>>>>>>>>>>>>>>#$>>>>>>>>>>>>>>",
"60,43>4555580595@,85,;2q7>34>35560,43>4555580595@,85,;2q7>34>355",
"%214,,-*4>197><* ,91*%;;:*3,<5>$%214,,-*4>197><* ,91*%;;:*3,<5>$",
"262-<9;:9>;=,77- ,2;%=43>5:>05:X262-<9;:9>;=,77- ,2;%=43>5:>05:X",
"=35&*q3#%$;->19* ,11:#66,1+-2>:*=35&*q3#%$;->19* ,11:#66,1+-2>:*",
"2:=;-2>X-41*,:5- ,473=72>>1>#;>>2:=;-2>X-41*,:5- ,473=72>>1>#;>>",
"2:&%3&4%%67$%*=& ,>;,>17&O$;*@:72:&%3&4%%67$%*=& ,>;,>17&O$;*@:7",
",6>-,-<,3-&;,72$ ,2#O=>1-*=:>3>%,6>-,-<,3-&;,72$ ,2#O=>1-*=:>3>%",
":*514#-+&:,1;8<$ ,:%=;69<@O-><>=:*514#-+&:,1;8<$ ,:%=;69<@O-><>=",
"7:<:%=,3>97,&>9; ,9<$=<1>-=>6,:@7:<:%=,3>97,&>9; ,9<$=<1>-=>6,:@",
"&4&64>,<,1,:;22o ,,=3<#=#->6*@56&4&64>,<,1,:;22o ,,=3<#=#->6*@56",
"=13&,<7<7=$=$,>@ ,-&63;@1<#5:O:$=13&,<7<7=$=$,>@ ,-&63;@1<#5:O:$",
"@::+;<6*6&73;::$ ,2:%2<;,7:%3@;=@::+;<6*6&73;::$ ,2:%2<;,7:%3@;=",
"4:;==@:>6--$;%$# ,;,%*#2,>:=#=3+4:;==@:>6--$;%$# ,;,%*#2,>:=#=3+",
"OXXXX XoOX. X... :*o.. ooXXX XO OXXXX XoOX. X... :*o.. ooXXX XO ",
"                 X.                              X.             "
};
